<svg width="200" height="200" viewBox="0 0 200 200" fill="none" xmlns="http://www.w3.org/2000/svg">
<circle cx="100" cy="100" r="100" fill="white"/>
<path fill-rule="evenodd" clip-rule="evenodd" d="M177.414 36.698C142.452 -6.05496 79.4509 -12.3704 36.698 22.592C-6.05496 57.5544 -12.3704 120.555 22.592 163.308C57.5544 206.061 120.555 212.376 163.308 177.414C206.061 142.452 212.376 79.4509 177.414 36.698ZM175.287 100.426C175.287 142.124 141.484 175.926 99.7869 175.926C58.0894 175.926 24.2869 142.124 24.2869 100.426C24.2869 58.7286 58.0894 24.9261 99.7869 24.9261C141.484 24.9261 175.287 58.7286 175.287 100.426ZM187.287 100.426C187.287 148.751 148.112 187.926 99.7869 187.926C51.462 187.926 12.2869 148.751 12.2869 100.426C12.2869 52.1012 51.462 12.9261 99.7869 12.9261C148.112 12.9261 187.287 52.1012 187.287 100.426ZM95.2065 139.663C108.633 139.663 119.518 128.778 119.518 115.351C119.518 101.925 108.633 91.0402 95.2065 91.0402C81.7798 91.0402 70.8953 101.925 70.8953 115.351C70.8953 128.778 81.7798 139.663 95.2065 139.663ZM95.2065 151.663C115.261 151.663 131.518 135.405 131.518 115.351C131.518 95.2973 115.261 79.0402 95.2065 79.0402C75.1523 79.0402 58.8953 95.2973 58.8953 115.351C58.8953 135.405 75.1523 151.663 95.2065 151.663ZM126.394 74.8627C133.557 74.8627 139.363 69.0566 139.363 61.8944C139.363 54.7322 133.557 48.9261 126.394 48.9261C119.232 48.9261 113.426 54.7322 113.426 61.8944C113.426 69.0566 119.232 74.8627 126.394 74.8627Z" fill="url(#paint0_linear_48_11)"/>
<defs>
<linearGradient id="paint0_linear_48_11" x1="177.414" y1="36.698" x2="22.5919" y2="163.308" gradientUnits="userSpaceOnUse">
<stop stop-color="#673AB7"/>
<stop offset="0.332935" stop-color="#E91E63"/>
<stop offset="0.657688" stop-color="#FF5722"/>
<stop offset="1" stop-color="#FFC107"/>
</linearGradient>
</defs>
</svg>
